<mxfile host="Electron" agent="Mozilla/5.0 (Windows NT 10.0; Win64; x64) AppleWebKit/537.36 (KHTML, like Gecko) draw.io/24.7.5 Chrome/126.0.6478.183 Electron/31.3.0 Safari/537.36" version="24.7.5">
  <diagram name="Page-1" id="13e1069c-82ec-6db2-03f1-153e76fe0fe0">
    <mxGraphModel dx="923" dy="690" grid="0" gridSize="10" guides="1" tooltips="1" connect="1" arrows="1" fold="1" page="1" pageScale="1" pageWidth="1100" pageHeight="850" background="none" math="0" shadow="0">
      <root>
        <mxCell id="0" />
        <mxCell id="1" parent="0" />
        <mxCell id="7baba1c4bc27f4b0-2" value="gateway-was&lt;div&gt;:8082&lt;/div&gt;" style="shape=umlLifeline;perimeter=lifelinePerimeter;whiteSpace=wrap;html=1;container=1;collapsible=0;recursiveResize=0;outlineConnect=0;rounded=1;shadow=0;comic=0;labelBackgroundColor=none;strokeWidth=1;fontFamily=Verdana;fontSize=12;align=center;" parent="1" vertex="1">
          <mxGeometry x="280" y="80" width="100" height="600" as="geometry" />
        </mxCell>
        <mxCell id="7baba1c4bc27f4b0-10" value="" style="html=1;points=[];perimeter=orthogonalPerimeter;rounded=0;shadow=0;comic=0;labelBackgroundColor=none;strokeWidth=1;fontFamily=Verdana;fontSize=12;align=center;" parent="7baba1c4bc27f4b0-2" vertex="1">
          <mxGeometry x="45" y="70" width="10" height="60" as="geometry" />
        </mxCell>
        <mxCell id="au6jjlaTPDau6q0tMNbc-1" value="jwt token" style="html=1;verticalAlign=bottom;endArrow=open;dashed=1;endSize=8;labelBackgroundColor=none;fontFamily=Verdana;fontSize=12;edgeStyle=elbowEdgeStyle;elbow=vertical;" edge="1" parent="7baba1c4bc27f4b0-2">
          <mxGeometry relative="1" as="geometry">
            <mxPoint x="-120" y="110" as="targetPoint" />
            <Array as="points">
              <mxPoint x="-10" y="110" />
              <mxPoint x="20" y="110" />
            </Array>
            <mxPoint x="40" y="110" as="sourcePoint" />
          </mxGeometry>
        </mxCell>
        <mxCell id="7baba1c4bc27f4b0-11" value="/api/token" style="html=1;verticalAlign=bottom;endArrow=block;entryX=0;entryY=0;labelBackgroundColor=none;fontFamily=Verdana;fontSize=12;edgeStyle=elbowEdgeStyle;elbow=vertical;" parent="7baba1c4bc27f4b0-2" edge="1">
          <mxGeometry relative="1" as="geometry">
            <mxPoint x="-120" y="80" as="sourcePoint" />
            <mxPoint x="40" y="80.13000000000034" as="targetPoint" />
            <mxPoint as="offset" />
          </mxGeometry>
        </mxCell>
        <mxCell id="7baba1c4bc27f4b0-3" value="netty&lt;div&gt;:8090&lt;/div&gt;" style="shape=umlLifeline;perimeter=lifelinePerimeter;whiteSpace=wrap;html=1;container=1;collapsible=0;recursiveResize=0;outlineConnect=0;rounded=1;shadow=0;comic=0;labelBackgroundColor=none;strokeWidth=1;fontFamily=Verdana;fontSize=12;align=center;" parent="1" vertex="1">
          <mxGeometry x="460" y="80" width="115" height="580" as="geometry" />
        </mxCell>
        <mxCell id="au6jjlaTPDau6q0tMNbc-27" value="stomp: /monitor/send" style="html=1;verticalAlign=bottom;endArrow=block;labelBackgroundColor=none;fontFamily=Verdana;fontSize=12;edgeStyle=elbowEdgeStyle;elbow=vertical;" edge="1" parent="7baba1c4bc27f4b0-3">
          <mxGeometry x="-0.0044" relative="1" as="geometry">
            <mxPoint x="68.42857142857133" y="199.99714285714288" as="sourcePoint" />
            <mxPoint as="offset" />
            <mxPoint x="231" y="200.14" as="targetPoint" />
          </mxGeometry>
        </mxCell>
        <mxCell id="7baba1c4bc27f4b0-4" value="&lt;div&gt;chrome&lt;/div&gt;&lt;div&gt;monitor&lt;span style=&quot;background-color: initial;&quot;&gt;/list&lt;/span&gt;&lt;/div&gt;" style="shape=umlLifeline;perimeter=lifelinePerimeter;whiteSpace=wrap;html=1;container=1;collapsible=0;recursiveResize=0;outlineConnect=0;rounded=1;shadow=0;comic=0;labelBackgroundColor=none;strokeWidth=1;fontFamily=Verdana;fontSize=12;align=center;" parent="1" vertex="1">
          <mxGeometry x="640" y="80" width="120" height="600" as="geometry" />
        </mxCell>
        <mxCell id="au6jjlaTPDau6q0tMNbc-25" value="" style="shape=umlActor;verticalLabelPosition=bottom;verticalAlign=top;html=1;outlineConnect=0;" vertex="1" parent="7baba1c4bc27f4b0-4">
          <mxGeometry x="70" y="440" width="10" height="30" as="geometry" />
        </mxCell>
        <mxCell id="au6jjlaTPDau6q0tMNbc-6" value="" style="html=1;points=[];perimeter=orthogonalPerimeter;rounded=0;shadow=0;comic=0;labelBackgroundColor=none;strokeWidth=1;fontFamily=Verdana;fontSize=12;align=center;" vertex="1" parent="7baba1c4bc27f4b0-4">
          <mxGeometry x="55" y="450" width="10" height="50" as="geometry" />
        </mxCell>
        <mxCell id="7baba1c4bc27f4b0-5" value="postgresql" style="shape=umlLifeline;perimeter=lifelinePerimeter;whiteSpace=wrap;html=1;container=1;collapsible=0;recursiveResize=0;outlineConnect=0;rounded=1;shadow=0;comic=0;labelBackgroundColor=none;strokeWidth=1;fontFamily=Verdana;fontSize=12;align=center;" parent="1" vertex="1">
          <mxGeometry x="820" y="80" width="110" height="600" as="geometry" />
        </mxCell>
        <mxCell id="7baba1c4bc27f4b0-19" value="" style="html=1;points=[];perimeter=orthogonalPerimeter;rounded=0;shadow=0;comic=0;labelBackgroundColor=none;strokeWidth=1;fontFamily=Verdana;fontSize=12;align=center;" parent="7baba1c4bc27f4b0-5" vertex="1">
          <mxGeometry x="50" y="50" width="10" height="530" as="geometry" />
        </mxCell>
        <mxCell id="au6jjlaTPDau6q0tMNbc-9" value="connect /ws" style="html=1;verticalAlign=bottom;endArrow=block;labelBackgroundColor=none;fontFamily=Verdana;fontSize=12;edgeStyle=elbowEdgeStyle;elbow=vertical;" edge="1" parent="7baba1c4bc27f4b0-5">
          <mxGeometry x="0.4295" relative="1" as="geometry">
            <mxPoint x="-140.5" y="330" as="sourcePoint" />
            <mxPoint x="-470" y="330" as="targetPoint" />
            <mxPoint as="offset" />
            <Array as="points">
              <mxPoint x="-130" y="330" />
            </Array>
          </mxGeometry>
        </mxCell>
        <mxCell id="au6jjlaTPDau6q0tMNbc-10" value="subscribe topic/time, topic/monitor" style="html=1;verticalAlign=bottom;endArrow=block;labelBackgroundColor=none;fontFamily=Verdana;fontSize=12;edgeStyle=elbowEdgeStyle;elbow=vertical;" edge="1" parent="7baba1c4bc27f4b0-5">
          <mxGeometry x="0.2011" relative="1" as="geometry">
            <mxPoint x="-140.5" y="360" as="sourcePoint" />
            <mxPoint x="-470" y="360" as="targetPoint" />
            <mxPoint as="offset" />
            <Array as="points">
              <mxPoint x="-130" y="360" />
            </Array>
          </mxGeometry>
        </mxCell>
        <mxCell id="au6jjlaTPDau6q0tMNbc-22" value="" style="html=1;points=[];perimeter=orthogonalPerimeter;rounded=0;shadow=0;comic=0;labelBackgroundColor=none;strokeWidth=1;fontFamily=Verdana;fontSize=12;align=center;" vertex="1" parent="7baba1c4bc27f4b0-5">
          <mxGeometry x="-495" y="320" width="10" height="220" as="geometry" />
        </mxCell>
        <mxCell id="au6jjlaTPDau6q0tMNbc-24" value="" style="html=1;points=[];perimeter=orthogonalPerimeter;rounded=0;shadow=0;comic=0;labelBackgroundColor=none;strokeWidth=1;fontFamily=Verdana;fontSize=12;align=center;" vertex="1" parent="7baba1c4bc27f4b0-5">
          <mxGeometry x="-308" y="540" width="10" height="40" as="geometry" />
        </mxCell>
        <mxCell id="au6jjlaTPDau6q0tMNbc-13" value="" style="html=1;points=[];perimeter=orthogonalPerimeter;rounded=0;shadow=0;comic=0;labelBackgroundColor=none;strokeWidth=1;fontFamily=Verdana;fontSize=12;align=center;" vertex="1" parent="7baba1c4bc27f4b0-5">
          <mxGeometry x="-125" y="180" width="10" height="230" as="geometry" />
        </mxCell>
        <mxCell id="au6jjlaTPDau6q0tMNbc-23" value="topic recv." style="html=1;verticalAlign=bottom;endArrow=block;labelBackgroundColor=none;fontFamily=Verdana;fontSize=12;edgeStyle=elbowEdgeStyle;elbow=vertical;exitX=1.044;exitY=0.228;exitDx=0;exitDy=0;exitPerimeter=0;" edge="1" parent="7baba1c4bc27f4b0-5">
          <mxGeometry x="-0.4707" relative="1" as="geometry">
            <mxPoint x="-470" y="390.2199999999999" as="sourcePoint" />
            <mxPoint as="offset" />
            <mxPoint x="-130" y="390" as="targetPoint" />
          </mxGeometry>
        </mxCell>
        <mxCell id="au6jjlaTPDau6q0tMNbc-16" value="notify message" style="html=1;verticalAlign=bottom;endArrow=block;labelBackgroundColor=none;fontFamily=Verdana;fontSize=12;edgeStyle=elbowEdgeStyle;elbow=vertical;" edge="1" parent="7baba1c4bc27f4b0-5">
          <mxGeometry x="0.5122" relative="1" as="geometry">
            <mxPoint x="-206.76999999999998" y="560" as="sourcePoint" />
            <mxPoint x="-296.77" y="560" as="targetPoint" />
            <mxPoint as="offset" />
            <Array as="points">
              <mxPoint x="50" y="560" />
            </Array>
          </mxGeometry>
        </mxCell>
        <mxCell id="au6jjlaTPDau6q0tMNbc-14" value="/api/toAgent command(dir /tmp)" style="html=1;verticalAlign=bottom;endArrow=block;labelBackgroundColor=none;fontFamily=Verdana;fontSize=12;edgeStyle=elbowEdgeStyle;elbow=vertical;" edge="1" parent="7baba1c4bc27f4b0-5">
          <mxGeometry x="0.3333" relative="1" as="geometry">
            <mxPoint x="-319.27" y="470" as="sourcePoint" />
            <mxPoint x="-479.27" y="470" as="targetPoint" />
            <mxPoint as="offset" />
            <Array as="points">
              <mxPoint x="-140" y="470" />
            </Array>
          </mxGeometry>
        </mxCell>
        <mxCell id="au6jjlaTPDau6q0tMNbc-15" value="notify message command" style="html=1;verticalAlign=bottom;endArrow=block;labelBackgroundColor=none;fontFamily=Verdana;fontSize=12;edgeStyle=elbowEdgeStyle;elbow=vertical;" edge="1" parent="7baba1c4bc27f4b0-5">
          <mxGeometry x="-0.3863" relative="1" as="geometry">
            <mxPoint x="-480" y="520" as="sourcePoint" />
            <mxPoint as="offset" />
            <mxPoint x="45" y="520.2" as="targetPoint" />
            <Array as="points">
              <mxPoint x="-480" y="520" />
            </Array>
          </mxGeometry>
        </mxCell>
        <mxCell id="au6jjlaTPDau6q0tMNbc-18" value="notify message" style="html=1;verticalAlign=bottom;endArrow=block;labelBackgroundColor=none;fontFamily=Verdana;fontSize=12;edgeStyle=elbowEdgeStyle;elbow=vertical;" edge="1" parent="7baba1c4bc27f4b0-5">
          <mxGeometry x="0.5122" relative="1" as="geometry">
            <mxPoint x="-475" y="570" as="sourcePoint" />
            <mxPoint x="-660" y="570" as="targetPoint" />
            <mxPoint as="offset" />
            <Array as="points">
              <mxPoint x="-310" y="570" />
            </Array>
          </mxGeometry>
        </mxCell>
        <mxCell id="au6jjlaTPDau6q0tMNbc-32" value="posrgres notify" style="text;whiteSpace=wrap;fontStyle=1;labelBackgroundColor=default;" vertex="1" parent="7baba1c4bc27f4b0-5">
          <mxGeometry x="10" y="480" width="90" height="30" as="geometry" />
        </mxCell>
        <mxCell id="7baba1c4bc27f4b0-8" value="test-client" style="shape=umlLifeline;perimeter=lifelinePerimeter;whiteSpace=wrap;html=1;container=1;collapsible=0;recursiveResize=0;outlineConnect=0;rounded=1;shadow=0;comic=0;labelBackgroundColor=none;strokeWidth=1;fontFamily=Verdana;fontSize=12;align=center;" parent="1" vertex="1">
          <mxGeometry x="100" y="80" width="100" height="600" as="geometry" />
        </mxCell>
        <mxCell id="7baba1c4bc27f4b0-9" value="" style="html=1;points=[];perimeter=orthogonalPerimeter;rounded=0;shadow=0;comic=0;labelBackgroundColor=none;strokeWidth=1;fontFamily=Verdana;fontSize=12;align=center;" parent="7baba1c4bc27f4b0-8" vertex="1">
          <mxGeometry x="45" y="60" width="10" height="540" as="geometry" />
        </mxCell>
        <mxCell id="au6jjlaTPDau6q0tMNbc-19" value="notify response" style="html=1;verticalAlign=bottom;endArrow=block;labelBackgroundColor=none;fontFamily=Verdana;fontSize=12;edgeStyle=elbowEdgeStyle;elbow=vertical;" edge="1" parent="7baba1c4bc27f4b0-8">
          <mxGeometry x="0.3101" y="31" relative="1" as="geometry">
            <mxPoint x="54.996666666666684" y="590" as="sourcePoint" />
            <mxPoint as="offset" />
            <mxPoint x="180" y="240" as="targetPoint" />
            <Array as="points">
              <mxPoint x="160.83" y="590" />
            </Array>
          </mxGeometry>
        </mxCell>
        <mxCell id="7baba1c4bc27f4b0-13" value="" style="html=1;points=[];perimeter=orthogonalPerimeter;rounded=0;shadow=0;comic=0;labelBackgroundColor=none;strokeWidth=1;fontFamily=Verdana;fontSize=12;align=center;" parent="1" vertex="1">
          <mxGeometry x="512" y="230" width="10" height="100" as="geometry" />
        </mxCell>
        <mxCell id="au6jjlaTPDau6q0tMNbc-2" value="login(add channel)" style="html=1;verticalAlign=bottom;endArrow=block;labelBackgroundColor=none;fontFamily=Verdana;fontSize=12;edgeStyle=elbowEdgeStyle;elbow=vertical;" edge="1" parent="1">
          <mxGeometry relative="1" as="geometry">
            <mxPoint x="170" y="280" as="sourcePoint" />
            <mxPoint as="offset" />
            <mxPoint x="500" y="280" as="targetPoint" />
          </mxGeometry>
        </mxCell>
        <mxCell id="7baba1c4bc27f4b0-14" value="channel connect(active)" style="html=1;verticalAlign=bottom;endArrow=block;labelBackgroundColor=none;fontFamily=Verdana;fontSize=12;edgeStyle=elbowEdgeStyle;elbow=vertical;" parent="1" edge="1">
          <mxGeometry relative="1" as="geometry">
            <mxPoint x="170" y="245" as="sourcePoint" />
            <mxPoint as="offset" />
            <mxPoint x="500" y="245" as="targetPoint" />
            <Array as="points">
              <mxPoint x="500" y="245" />
            </Array>
          </mxGeometry>
        </mxCell>
        <mxCell id="au6jjlaTPDau6q0tMNbc-4" value="polling: random message(reboot, shutdown, health...)" style="html=1;verticalAlign=bottom;endArrow=block;labelBackgroundColor=none;fontFamily=Verdana;fontSize=12;edgeStyle=elbowEdgeStyle;elbow=vertical;" edge="1" parent="1">
          <mxGeometry relative="1" as="geometry">
            <mxPoint x="170" y="314" as="sourcePoint" />
            <mxPoint as="offset" />
            <mxPoint x="500" y="314" as="targetPoint" />
          </mxGeometry>
        </mxCell>
        <mxCell id="au6jjlaTPDau6q0tMNbc-29" value="notify response" style="html=1;verticalAlign=bottom;endArrow=block;labelBackgroundColor=none;fontFamily=Verdana;fontSize=12;edgeStyle=elbowEdgeStyle;elbow=vertical;" edge="1" parent="1">
          <mxGeometry x="-0.2308" relative="1" as="geometry">
            <mxPoint x="530" y="320" as="sourcePoint" />
            <mxPoint as="offset" />
            <mxPoint x="630" y="290" as="targetPoint" />
            <Array as="points">
              <mxPoint x="650" y="320" />
            </Array>
          </mxGeometry>
        </mxCell>
        <mxCell id="au6jjlaTPDau6q0tMNbc-30" value="http://localhost:8082/monitor/list" style="text;whiteSpace=wrap;fontStyle=1" vertex="1" parent="1">
          <mxGeometry x="610" y="60" width="200" height="20" as="geometry" />
        </mxCell>
      </root>
    </mxGraphModel>
  </diagram>
</mxfile>
